<svg xmlns="http://www.w3.org/2000/svg" width="62.759" height="87.737" viewBox="0 0 62.759 87.737"><g transform="translate(0.02 0.028)"><path d="M134.784,26.924c.623-.61,1.228-1.237,1.872-1.822,1.031-.938,2.1-1.832,3.119-2.788a1.228,1.228,0,0,0,.273-.853,2.9,2.9,0,0,1,.414-2.292c.142-.154.408-.345.546-.3a.7.7,0,0,1,.338.537c.124,1.756.294,3.516.284,5.274a5.276,5.276,0,0,0,2.027,4.568,21.749,21.749,0,0,1,3.3,3.3,14.272,14.272,0,0,1,2.7,4.513,15.357,15.357,0,0,1,.535,3.757,6.839,6.839,0,0,1-1.478,4.764,1.3,1.3,0,0,0-.142.32,1.086,1.086,0,0,0,0,.252c1.52-.476,2.685.426,3.98.87l-.009.253c-.559.033-1.117.081-1.676.1a1.409,1.409,0,0,0-1.589,1.205.657.657,0,0,1-.161.307c-.655.522-1.338,1.012-1.976,1.554a1.1,1.1,0,0,0-.355.678c-.065.853.011,1.706-.107,2.546-.34,2.435-2.01,3.918-3.875,5.26-1.733,1.242-3.807,1.5-5.773,2.067-2.132.608-4.28,1.147-6.421,1.717-1.564.417-2.651,1.6-3.9,2.513a.53.53,0,0,0-.171.473.545.545,0,0,0,.473.195c1.2-.246,2.394-.506,3.578-.812a1.1,1.1,0,0,0,.55-.522,3.662,3.662,0,0,1,2.479-1.611,16.742,16.742,0,0,1,10.639.257,3.185,3.185,0,0,1,.9.4,8.313,8.313,0,0,0,3.887,1.294,2.557,2.557,0,0,0,2.178-.779,3.2,3.2,0,0,1,.726-.347,6.133,6.133,0,0,1,.183.719,2.289,2.289,0,0,0,1.338,1.935,5.244,5.244,0,0,1,1.48,1.2c.569.6.711,1.351,1.262,1.878l-.119.132-.687-.55-.142.183c.456.37.924.724,1.365,1.112a18.423,18.423,0,0,1,1.457,1.38,2.951,2.951,0,0,1,.7,1.733,3.567,3.567,0,0,0,.943,1.719,4.122,4.122,0,0,1,1.059,2.021,6.412,6.412,0,0,0,.853,1.729c.121.222.4.4.436.623.142.886.227,1.783.32,2.677.018.185-.043.377-.031.569a16.252,16.252,0,0,1-.927,6.339,6.222,6.222,0,0,1-3.811,4.042,21.183,21.183,0,0,1-4.306,1.248,7.963,7.963,0,0,0-1.926.816,1.434,1.434,0,0,1,.569-1.616c.354-.3.908-.471.652-1.149-.027-.074.327-.408.527-.426a3.379,3.379,0,0,0,2.39-1.369,2.766,2.766,0,0,0,.569-1.747c-.112-.816-.131-1.869-1.309-2.1a.426.426,0,0,1-.24-.233c-.5-1.106-1.6-1.548-2.576-2.445.094,1.353.173,2.5.256,3.649.011.142.09.3.05.418-.434,1.306.02,2.64-.142,3.932a4.7,4.7,0,0,1-1.024,1.963,4.087,4.087,0,0,0-.893,1.726,4.331,4.331,0,0,1-.66,1.322,4.913,4.913,0,0,0-.579,2.634c0,.7.469,1.422,0,2.132-.046.068.155.33.276.472a1.161,1.161,0,0,1-.506,1.814,2.713,2.713,0,0,0-.945.785c-.262.31-.391.795-.974.553a1.136,1.136,0,0,1-.691-1.26,8.029,8.029,0,0,0,.105-1.122,7.923,7.923,0,0,0-.331-1.174,1.186,1.186,0,0,1-.058-.527c.2-.925.426-1.848.688-2.955l-.63.364c-.206-.614-.434-1.177-.584-1.76a26.744,26.744,0,0,0-2.2-6.066c-.51-.948-1.5-1.008-2.139-1.621-1.464-1.4-3.48-1.74-5.118-2.764a16.819,16.819,0,0,1-2.673-2.3c-.321-.311-.616-.485-.979-.284-.272.142-.645.448-.648.684-.013,1.262-.9,2.007-1.514,2.943a29.6,29.6,0,0,0-1.848,3.5,21.854,21.854,0,0,0-1.029,2.566,1.1,1.1,0,0,0,.168.864c.593.789,1.252,1.527,1.879,2.29a1.272,1.272,0,0,0,1.035.577,2.777,2.777,0,0,1,2.309,3.177c-.335,1.184.225,2.124.647,3.1.229.529.689.954.971,1.467a1.3,1.3,0,0,1,.179.955c-.08.2-.537.324-.832.337-.87.04-1.743-.016-2.611.01a.829.829,0,0,1-.944-.667c-.128-.5-.2-1.016-.328-1.52a2.955,2.955,0,0,0-.284-.778,2.293,2.293,0,0,0-1.743-1.258,5.9,5.9,0,0,1-3.127-1.55,27.286,27.286,0,0,0-2.872-2.06,1.68,1.68,0,0,1-.617-2.051c.327-.756.735-1.478,1.048-2.239a1.258,1.258,0,0,0-.011-.844,11.9,11.9,0,0,0-2.687-3.7c-.668-.726-1.279-1.508-1.9-2.275q-1.8-2.246-3.571-4.488c-1.126-1.429-2.263-2.856-3.345-4.314a2.438,2.438,0,0,1-.407-1.144,2.192,2.192,0,0,0-.829-1.412c-1.626-1.507-2.923-3.211-2.948-5.573a2.459,2.459,0,0,1,.965-2.174,2.69,2.69,0,0,0,1.193-2.068,14.976,14.976,0,0,1,.466-1.921,4.906,4.906,0,0,0,.01-.927,10.794,10.794,0,0,1-4.976.569l-.055-.26c.208-.105.426-.2.624-.314a1.119,1.119,0,0,0,.711-1.17,1.369,1.369,0,0,1,.284-.874c.405-.526.417-.853-.085-1.316a2.163,2.163,0,0,1-.367-.33,4.324,4.324,0,0,1-.284-.61,1.8,1.8,0,0,1,.546-.233c.844-.05.689-.91,1.095-1.311.24-.236.426-.523.664-.763.21-.215.451-.4.682-.6.344-.284.694-.569,1.2-.987-.456-1.092-1-2.3-1.468-3.543-.239-.624-.355-1.294-.569-2.094-.495.193-1.07.365-1.6.631a3.068,3.068,0,0,1-3.048-.1c-.235-.129-.53-.364-.569-.59-.119-.68-.583-.593-1.055-.631a7.44,7.44,0,0,1-1.092-.253,4.108,4.108,0,0,1,.91-.64c.452-.165.952-.195,1.443-.364l-1-.122a3.234,3.234,0,0,1,1.564-1.137,3.356,3.356,0,0,0,.972-.381.762.762,0,0,0,.284-1.188,2.184,2.184,0,0,1,.161-2.525c-.587-.688-1.109-1.376-1.719-1.976-.264-.259-.729-.3-1.065-.5-.159-.1-.227-.344-.382-.6-.543,0-.732-.516-.758-1.029a14.344,14.344,0,0,1,.094-2.458,4.688,4.688,0,0,1,.515-1.186c2.083.426,4.123.88,6.174,1.279a2.275,2.275,0,0,0,2.09-.736c.529-.519,1.117-.977,1.706-1.487l-.408-.711.109-.092.426.226c-.108-.284-.225-.59-.34-.9l.142-.107,1.063.655-.711-1.831,1.453,1.051V30.93l1.328.984c.173-.483.3-.839.473-1.323.216.307.307.547.48.657.284.176.645.426.92.365a7.744,7.744,0,0,1,3.887.446A5.67,5.67,0,0,1,122.49,33.8c.055.071.246.038.418.06v3.372c.426-.362.867-.756,1.328-1.127.527-.426,1.07-.832,1.608-1.245a6.785,6.785,0,0,1-.55.64c-1.12,1.031-2.4,1.871-2.907,3.483-.284.91-.344,1.193.586,1.46,1.467.426,3.025.584,4.293,1.564a1.3,1.3,0,0,0,.54.161l4.523.853,11.98,2.256c.739.142,1.619.59,2.178.335.6-.273.945-1.184,1.314-1.864a6.17,6.17,0,0,0,.967-2.253,8.158,8.158,0,0,0-1.308-5.706,36.988,36.988,0,0,0-4.99-5.4c-.95-.866-2.071-1.585-2.559-2.872a3,3,0,0,0-.472-.6c-.186-.246-.361-.5-.54-.751.306-.023.61-.044.915-.073.041,0,.081-.041.217-.118.05-1.1.1-2.256.154-3.412l-.2-.08c-.732.657-1.453,1.328-2.2,1.966C136.794,25.289,135.782,26.1,134.784,26.924Zm10.184,24.838a4.863,4.863,0,0,0-.018-.96.83.83,0,0,0-.405-.562,12.21,12.21,0,0,0-5.372-.536c-1.932.142-3.871.193-5.807.225-1.639.026-3.3-.206-4.848.587-.33.169-.775.365-.958-.273-.027-.094-.321-.127-.5-.162-1.429-.284-2.323.7-3.341,1.4a.9.9,0,0,0-.385,1.1c.311,1.137.55,2.3.927,3.42.324.965.112,2.218,1.342,2.756.064.027.063.183.125.246a4.159,4.159,0,0,0,.426.35c.226.173.456.341.685.512a3.25,3.25,0,0,1-.617.61.752.752,0,0,0-.353,1.124,4.092,4.092,0,0,0,.6.952c.142.159.522.321.654.245.34-.2.829-.522.843-.816.026-.516.226-.546.621-.62,1.919-.36,3.838-.722,5.745-1.153,1.308-.294,2.6-.662,3.879-1.066,1.564-.492,3.248-.742,4.394-2.1C143.858,55.558,145.149,54.081,144.968,51.761ZM129.686,44.2a16.38,16.38,0,0,1,2.2,1.335,1.835,1.835,0,0,0,1.4.51,25.958,25.958,0,0,1,6.539.665,12.056,12.056,0,0,0,6.512-.665c-.786-.142-1.429-.262-2.071-.385l-6.335-1.234-6.951-1.348c-1.682-.327-3.342-.9-5.089-.4a1.115,1.115,0,0,1-.426.01c-1.279-.162-2.552-.33-3.869-.5-.127.151-.408.354-.49.618a2.274,2.274,0,0,0-.073,1.167c.04.171.458.3.722.353.461.088.952.037,1.4.159.56.154,1.068.331,1.575-.132a.644.644,0,0,1,.53-.064,18.234,18.234,0,0,1,1.929.678c.751.33,1.193.225,1.575-.513l.779.4C129.591,44.626,129.631,44.43,129.686,44.2Zm18.252,50.109a1.161,1.161,0,0,0,.071-1.409,5.969,5.969,0,0,1-.746-3.412,3.186,3.186,0,0,0-.678-2.114,26.5,26.5,0,0,1-1.683-2.7c-.562-1.187-.894-2.482-1.436-3.68a3.888,3.888,0,0,0-1.147-1.356c-.543-.426-1.161-.074-1.23.633-.075.776-.128,1.554-.206,2.329a1,1,0,0,0,.591,1.1c.844.426,1.693.832,2.519,1.279a.982.982,0,0,1,.452.569c.19.888.284,1.8.49,2.681a5.61,5.61,0,0,0,.6,1.382c.426.778.938,1.514,1.345,2.3C147.267,92.661,147.563,93.442,147.938,94.306ZM122.991,52.357l-.253-.03c-.4,1.355-.8,2.7-1.169,4.069a.561.561,0,0,0,.27.456,4.939,4.939,0,0,0,1.312.49c.853.142,1.137-.2.915-1.011-.3-1.137-.6-2.275-.9-3.412C123.12,52.728,123.05,52.543,122.991,52.357Z" transform="translate(-99.66 -18.89)" fill="#fa7300"/><path d="M270.877,48.788c1-.823,2-1.635,2.985-2.472.749-.638,1.47-1.309,2.2-1.966l.2.08c-.053,1.156-.1,2.313-.154,3.412-.142.077-.176.114-.217.118-.306.028-.61.05-.915.073.179.25.354.5.54.751a3,3,0,0,1,.472.6c.493,1.279,1.615,2.006,2.559,2.872a36.555,36.555,0,0,1,4.99,5.4,8.136,8.136,0,0,1,1.308,5.706,6.17,6.17,0,0,1-.967,2.253c-.368.68-.711,1.591-1.313,1.864-.559.254-1.439-.2-2.178-.335l-11.98-2.256-4.523-.853a1.286,1.286,0,0,1-.54-.161c-1.268-.979-2.826-1.137-4.293-1.564-.93-.267-.871-.55-.586-1.46.5-1.612,1.787-2.452,2.907-3.483a6.783,6.783,0,0,0,.55-.64l.009-.007,2.421-2.128.008-.01c1.076-.9,2.171-1.778,3.223-2.7.662-.584,1.262-1.241,1.891-1.864Z" transform="translate(-235.753 -40.755)" fill="none"/><path d="M306.143,84.22c-.628.623-1.228,1.279-1.891,1.864-1.052.927-2.147,1.805-3.223,2.7.058-.125.084-.284.179-.368q2.3-2.037,4.617-4.05A1.278,1.278,0,0,1,306.143,84.22Z" transform="translate(-272.421 -74.957)" fill="#fa7300"/><path d="M286.417,116.43,284,118.551Z" transform="translate(-257.812 -102.588)" fill="#fa7300"/><path d="M287.624,237.466c.181,2.32-1.11,3.79-2.363,5.277-1.146,1.362-2.835,1.612-4.394,2.1-1.279.4-2.572.772-3.879,1.066-1.9.426-3.825.793-5.745,1.153-.4.074-.6.1-.621.62-.014.294-.5.616-.843.816-.132.077-.506-.085-.654-.245a4.092,4.092,0,0,1-.6-.952.754.754,0,0,1,.353-1.125,3.38,3.38,0,0,0,.617-.61c-.229-.171-.459-.338-.685-.512a4.154,4.154,0,0,1-.426-.35c-.063-.063-.061-.219-.125-.246-1.23-.539-1.018-1.791-1.342-2.756-.377-1.117-.616-2.275-.927-3.42a.9.9,0,0,1,.385-1.1c1.018-.711,1.912-1.685,3.341-1.4.175.036.469.068.5.162.183.638.628.442.958.273,1.552-.793,3.208-.562,4.848-.587,1.936-.031,3.875-.087,5.807-.225a12.21,12.21,0,0,1,5.372.536.83.83,0,0,1,.405.562A4.862,4.862,0,0,1,287.624,237.466Z" transform="translate(-242.316 -204.594)" fill="none"/><path d="M258.558,184.916c-.048.233-.088.426-.135.651l-.779-.4c-.382.738-.824.843-1.575.513A18.236,18.236,0,0,0,254.14,185a.644.644,0,0,0-.53.064c-.507.463-1.015.284-1.575.132-.448-.122-.94-.071-1.4-.159-.264-.05-.682-.182-.722-.353a2.274,2.274,0,0,1,.072-1.167c.082-.264.364-.468.49-.618,1.318.171,2.593.338,3.869.5a1.114,1.114,0,0,0,.426-.01c1.747-.495,3.412.077,5.089.4q3.476.677,6.951,1.348,3.163.614,6.323,1.234c.643.124,1.279.239,2.071.385a12.056,12.056,0,0,1-6.512.665,26.1,26.1,0,0,0-6.539-.665,1.846,1.846,0,0,1-1.4-.51A17.089,17.089,0,0,0,258.558,184.916Z" transform="translate(-228.532 -159.609)" fill="none"/><path d="M396.767,459.929c-.375-.864-.671-1.652-1.055-2.4-.407-.788-.916-1.524-1.345-2.3a5.61,5.61,0,0,1-.6-1.382c-.209-.883-.3-1.793-.49-2.681a.982.982,0,0,0-.452-.569c-.826-.453-1.675-.864-2.519-1.279a1,1,0,0,1-.591-1.1c.078-.775.131-1.552.206-2.329.068-.711.687-1.062,1.23-.633a3.9,3.9,0,0,1,1.147,1.356c.542,1.2.874,2.493,1.436,3.681a25.655,25.655,0,0,0,1.683,2.7,3.185,3.185,0,0,1,.678,2.114,6.007,6.007,0,0,0,.746,3.412A1.147,1.147,0,0,1,396.767,459.929Z" transform="translate(-348.489 -384.513)" fill="none"/><path d="M255.543,254.289c.07.221.152.441.21.666.354,1.352.7,2.7,1.054,4.056.254.96-.07,1.369-1.076,1.2a5.761,5.761,0,0,1-1.542-.583.657.657,0,0,1-.317-.542c.433-1.619.909-3.226,1.373-4.837Z" transform="translate(-232.156 -221.174)" fill="#fa7300"/></g></svg>